<?xml version="1.0" encoding="utf-8"?>
<!-- Generator: Adobe Illustrator 27.4.1, SVG Export Plug-In . SVG Version: 6.00 Build 0)  -->
<svg version="1.1" id="Layer_1" xmlns="http://www.w3.org/2000/svg" xmlns:xlink="http://www.w3.org/1999/xlink" x="0px" y="0px"
	 viewBox="0 0 400 400" enable-background="new 0 0 400 400" xml:space="preserve">
<g id="Layer_2_00000176736491688478044620000002268729554102928784_">
	<path fill="#1D1C1B" d="M162.6,307.9h-49.4c-16.6,0-30-13.4-30-30V134c0-16.6,13.4-30,30-30h49.4c16.6,0,30,13.4,30,30v143.9
		C192.6,294.5,179.2,307.9,162.6,307.9z"/>
	<path fill="#1D1C1B" d="M291.8,307.8h-49.4c-16.5,0-29.9-13.4-29.9-29.9V134.1c0-16.5,13.4-29.9,29.9-29.9h49.4
		c16.5,0,29.9,13.4,29.9,29.9v143.7C321.7,294.4,308.3,307.8,291.8,307.8z"/>
	<g>
		<path fill="#FFFFFF" d="M129.8,175.7h-0.6L113.1,188v-22l16.7-13H153v106.1h-23.2V175.7z"/>
	</g>
	<g>
		<g>
			<defs>
				<path id="SVGID_1_" d="M291.8,307.8h-49.4c-16.5,0-29.9-13.4-29.9-29.9V134.1c0-16.5,13.4-29.9,29.9-29.9h49.4
					c16.5,0,29.9,13.4,29.9,29.9v143.7C321.7,294.4,308.3,307.8,291.8,307.8z"/>
			</defs>
			<clipPath id="SVGID_00000018212292044662422680000018365598703688826294_">
				<use xlink:href="#SVGID_1_"  overflow="visible"/>
			</clipPath>
			<g clip-path="url(#SVGID_00000018212292044662422680000018365598703688826294_)">
				<g>
					<path fill="#FFFFFF" d="M237.9,173.1l19.9-28.9c3.3-4.8,6-9,7.9-12.5s3.3-6.8,4-9.9c0.8-3,1.2-6.2,1.2-9.6v-2.9
						c0-1.9-0.3-3.4-0.8-4.7c-0.5-1.3-1.2-2.3-2.2-2.9c-0.9-0.7-2.1-1-3.4-1s-2.5,0.4-3.4,1.1c-1,0.7-1.7,1.7-2.1,3
						c-0.5,1.3-0.7,2.8-0.6,4.5l-0.1,10.4h-21.5v-8.9c0-5.8,1-10.8,3.3-15.1c2.2-4.3,5.5-7.6,9.7-10.1c4.3-2.4,9.4-3.6,15.4-3.6
						c6.2,0,11.3,1.2,15.5,3.5c4.1,2.3,7.3,5.6,9.5,9.7s3.3,8.9,3.3,14.5v1.9c0,4.5-0.6,8.8-1.9,13c-1.2,4.2-3.2,8.5-5.7,13
						c-2.6,4.5-5.8,9.5-9.7,15.1l-16.8,24l4.9-13.1v13.1l-5-6.1h34.5v19h-55.7v-16.5H237.9z"/>
				</g>
			</g>
		</g>
		<g>
			<defs>
				<path id="SVGID_00000140698088664834886310000009946096457471120561_" d="M291.8,307.8h-49.4c-16.5,0-29.9-13.4-29.9-29.9V134.1
					c0-16.5,13.4-29.9,29.9-29.9h49.4c16.5,0,29.9,13.4,29.9,29.9v143.7C321.7,294.4,308.3,307.8,291.8,307.8z"/>
			</defs>
			<clipPath id="SVGID_00000031910297227817083100000009231657869945688980_">
				<use xlink:href="#SVGID_00000140698088664834886310000009946096457471120561_"  overflow="visible"/>
			</clipPath>
			<g clip-path="url(#SVGID_00000031910297227817083100000009231657869945688980_)">
				<g>
					<path fill="#FFFFFF" d="M251.6,321.8c-4.4-2.3-7.9-5.6-10.3-9.9c-2.5-4.3-3.7-9.4-3.6-15.3l-0.1-7.1h22.3l0.1,8.5
						c0,1.6,0.3,3,0.8,4.3s1.3,2.1,2.4,2.8c1.1,0.6,2.4,0.9,3.8,0.9s2.7-0.3,3.8-0.9s1.9-1.5,2.5-2.8c0.6-1.2,0.8-2.7,0.8-4.4V286
						c0-2.8-0.7-4.9-2.1-6.3s-3.4-2.1-6.2-2.1H258v-16.9h7.5c1.7,0,3.1-0.3,4.2-0.9s2-1.5,2.5-2.6c0.6-1.2,0.8-2.6,0.8-4.2v-11
						c0-1.6-0.2-3-0.7-4.1s-1.2-2-2.2-2.6s-2.1-0.9-3.5-0.9s-2.5,0.3-3.5,0.8c-1,0.6-1.7,1.4-2.3,2.6c-0.6,1.2-0.8,2.6-0.8,4.2
						l-0.1,9.1H239l0.1-8.4c0-5.4,1.2-10.1,3.4-14.1s5.4-7.1,9.6-9.2c4.2-2.1,9.2-3.2,15.1-3.2s10.9,1.1,15.1,3.2s7.4,5.1,9.5,9
						s3.2,8.5,3.2,13.8v5.7c0,3.7-0.6,7-1.7,9.9s-2.8,5.2-5,6.9s-5,3-8.3,3.6v0.5c5.7,0.6,10,2.8,13.1,6.4c3,3.7,4.5,8.7,4.5,15v6.3
						c0,6-1.2,11.1-3.6,15.3c-2.4,4.2-5.9,7.5-10.4,9.9s-9.8,3.5-16.1,3.5C261.4,325.2,256,324.1,251.6,321.8z"/>
				</g>
			</g>
		</g>
	</g>
</g>
</svg>
